/* XPM */
static char *e8129022a2ae467bc8b557c80d10682817xfKWLn6zSnYTS0[] = {
/* columns rows colors chars-per-pixel */
"15 16 8 1 ",
"  c None",
". c #615B51",
"X c #68625A",
"o c #787168",
"O c #A49A8E",
"+ c gray77",
"@ c gray86",
"# c #F0F0EF",
/* pixels */
"     ......    ",
"   ..##@@++..  ",
"  .##@@@@@+++. ",
" .#@@@@@@@@++. ",
".#@@@@@@@@@+++.",
".@@@@@@#@@@@++.",
"...@@@#o..@@++.",
" oX.@@oooX.@++.",
" oX.@+ooXX.@+. ",
" ..##++...@+.  ",
" .@#X.++@@@+.  ",
" .@@X.@@@@@.   ",
"  .@@@@@@@+.   ",
"  .O@@O@O++.   ",
"  .O@@O+O..    ",
"   ......      "
};
