/* XPM */
static char *_aa467035f6b47c4c450f4080c84adf7n4kr4Nv6cxaxb2Pr[] = {
/* columns rows colors chars-per-pixel */
"32 32 218 2 ",
"   c #090909",
".  c white",
"X  c white",
"o  c white",
"O  c white",
"+  c white",
"@  c white",
"#  c #3E3D3C",
"$  c None",
"%  c #3A3938",
"&  c #A5714D",
"*  c #43423F",
"=  c #31302E",
"-  c #373633",
";  c #3B3A38",
":  c #3F3E3B",
">  c #42413E",
",  c #43413E",
"<  c #3D3C39",
"1  c #3E3D3A",
"2  c #3F3E3D",
"3  c #464544",
"4  c #4C4B4A",
"5  c #51504E",
"6  c #535250",
"7  c #52504F",
"8  c #413F3D",
"9  c #474746",
"0  c #5E5E5D",
"q  c #5B5B5A",
"w  c #5B5A59",
"e  c #4A4A49",
"r  c #4E4E4D",
"t  c white",
"y  c #FFD3FF",
"u  c #5F5E5E",
"i  c #5D5D5C",
"p  c #565453",
"a  c #4D4D4C",
"s  c #545251",
"d  c #41403D",
"f  c #535352",
"g  c #5A5A5A",
"h  c #6D6D6D",
"j  c #FF92FF",
"k  c #FF8FFF",
"l  c #FFF0FF",
"z  c #FFAEFF",
"x  c #FFCEFF",
"c  c #FF86FF",
"v  c #FF8BFF",
"b  c #FFD4FF",
"n  c #FFD2FF",
"m  c #5C5C5B",
"M  c #4E4D4C",
"N  c #393835",
"B  c #3D3C3B",
"V  c #656564",
"C  c #656565",
"Z  c #5B5C5B",
"A  c #FF84FF",
"S  c #FF87FF",
"D  c #FF9AFF",
"F  c #FFA0FF",
"G  c #FFABFF",
"H  c #FFB1FF",
"J  c #FFA1FF",
"K  c #FFF1FF",
"L  c #FFD1FF",
"P  c #FFD0FF",
"I  c #666766",
"U  c #353331",
"Y  c #4B4B4A",
"T  c #5F605F",
"R  c #6A6B6B",
"E  c #FF96FF",
"W  c #FFAAFF",
"Q  c #FFB8FF",
"!  c #FFC1FF",
"~  c #FFC9FF",
"^  c #FFC2FF",
"/  c #FFA3FF",
"(  c #5C5D5C",
")  c #494947",
"_  c #383736",
"`  c #FF8CFF",
"'  c #FFA6FF",
"]  c #FFC8FF",
"[  c #FF93FF",
"{  c #FFB0FF",
"}  c #FFACFF",
"|  c #373635",
" . c #383735",
".. c #FF99FF",
"X. c #FF95FF",
"o. c #FF8DFF",
"O. c #FFB3FF",
"+. c #FF97FF",
"@. c #FFB4FF",
"#. c #3C3B39",
"$. c #3A3938",
"%. c #3C3B3A",
"&. c #FF94FF",
"*. c #FFB7FF",
"=. c #FF9DFF",
"-. c #434342",
";. c #484847",
":. c #41403F",
">. c #40403F",
",. c #424241",
"<. c #454544",
"1. c #5C3937",
"2. c #493533",
"3. c #3F3F3E",
"4. c #676868",
"5. c #444442",
"6. c #3F3F3D",
"7. c #414140",
"8. c #444443",
"9. c #464645",
"0. c #4C4C4C",
"q. c gray30",
"w. c #474645",
"e. c #4B4B4B",
"r. c #4F504F",
"t. c #525251",
"y. c #50504F",
"u. c #515150",
"i. c #4C4C4B",
"p. c #494948",
"a. c #4F4F4E",
"s. c #3E3E3C",
"d. c #565656",
"f. c #5F6060",
"g. c #606161",
"h. c #626363",
"j. c gray37",
"k. c #585958",
"l. c #525352",
"z. c #555555",
"x. c #5D5D5D",
"c. c #646464",
"v. c #666767",
"b. c #656666",
"n. c #595A5A",
"m. c #5C5D5D",
"M. c #606060",
"N. c #454443",
"B. c #5B5B5B",
"V. c #FFD17C",
"C. c #686969",
"Z. c #555655",
"A. c #696A6A",
"S. c #FFB56C",
"D. c #FFE488",
"F. c #646565",
"G. c #F79852",
"H. c #F78634",
"J. c #FF8F55",
"K. c #FFBF71",
"L. c #FFD27D",
"P. c #FFE186",
"I. c #FFC877",
"U. c #636463",
"Y. c #F7CB52",
"T. c #FF7846",
"R. c #FFA863",
"E. c #FFFF70",
"W. c #FFD07A",
"Q. c #FFBC70",
"!. c #5B5C5C",
"~. c #616262",
"^. c #636464",
"/. c #663931",
"(. c #FF653A",
"). c #FF7845",
"_. c #FFFF60",
"`. c #FFB56A",
"'. c #FFA662",
"]. c #FFAF67",
"[. c #FFB76D",
"{. c #5A5B5A",
"}. c #5E5F5F",
"|. c #734234",
" X c #FF8B4E",
".X c #FFFF57",
"XX c #FFFF66",
"oX c #FF9E5D",
"OX c #515151",
"+X c #535353",
"@X c #8F563B",
"#X c #89543C",
"$X c #FFA045",
"%X c #FF7744",
"&X c #FFEB44",
"*X c #FFFF53",
"=X c #FF834B",
"-X c #41413F",
";X c #956144",
":X c #D9A066",
">X c #FFB54A",
",X c #FFB149",
"<X c #373634",
"1X c #D09761",
"2X c #C88F5C",
"3X c #8D553B",
"4X c #854F38",
"5X c #FF9844",
"6X c #FFFF44",
"7X c #9F6644",
"8X c #8A5239",
"9X c #834D38",
"0X c #7C4936",
"qX c #84503A",
"wX c #9A6242",
"eX c #9E6847",
"rX c #915C41",
"tX c #AF764E",
/* pixels */
"        . . X   X o . .     O + @ . . . .         . . . . . . . ",
"        . . X   X o . * = = - ; : > , * <         . . . . . .   ",
"      . . . = = = 1 * * = 2 3 4 5 6 7 8 ; = = = = * . . . .     ",
"    . . * * = = 9 0 q w e r t y 0 u i q p a 9 9 = * * * . .     ",
"    * s d = e f g h j k k l z x x c v t b n g g f m : d M N     ",
"= B N < V C Z A k v S D F G H H J J K L L P L A k I C V N U B = ",
"B = Y T R S t D E j t x W G G G G Q ! ~ ^ ^ z / D A S R ( ) = B ",
"_ = = A ` ' ] x [ l x x x J J J J J G { z } t x E { A A A = = _ ",
"|  .= = ` ..J X.o.H Q O.z F j j t x j j +.l @.O.x A A A = =  .| ",
" .#.$.%.= = = = A A &.[ A A A l x *.=.A ` X.A =.= = = = %.$.#. .",
"= = -.;.:.>.,.<.= = = = = = A ../ =.1.2.= = = = <.,.>.:.;.-.= = ",
"= 3.9 r 4.4.4.;.5.6.2 7.8.9.= = = = 9.8.7.2 6.5.;.4.4.4.r 9 3.= ",
"= 3.9 r 3 <.4.4.4.4.0.q.r Y w.-.-.w.Y r q.0.4.4.4.4.<.3 r 9 3.= ",
"= 2 e.r.t.y.u.i.p.9 a.4.4.4.4.4.4.4.4.4.4.a.9 p.i.u.y.t.r.e.2 = ",
"= s.Y d.f.g.h.j.k.f l.a r a.a.a.a.a.a.r a l.f k.j.h.g.f.d.Y s.= ",
"= # p.z.x.c.v.b.b.b.b.f.n.m.M.h.h.M.m.n.f.b.b.b.b.v.c.x.z.p.# = ",
"  = N.t.B.V.b.v.4.C.C.C.C.C.C.C.C.C.C.C.C.C.C.4.v.b.V.B.t.N.=   ",
"  = $ Y Z.x.V.b.4.4.C.A.A.A.A.A.A.A.A.A.A.C.4.4.b.V.x.Z.Y $ =   ",
"    = -.r S.D.V.F.v.4.C.C.A.A.A.A.A.A.C.C.4.v.F.V.D.S.r -.=     ",
"G.H.= % J.K.L.P.I.U.F.v.v.4.4.4.4.4.4.v.v.F.U.I.P.L.K.J.% = H.G.",
"Y.Y.H.= T.R.E.W.Q.!.f.~.^.F.F.F.F.F.F.^.~.f.!.Q.W.E.R.T.= H.Y.Y.",
"H.Y.Y./.(.)._.`.'.].[.{.m.j.}.}.}.}.j.m.{.[.].'.`._.).(./.Y.Y.H.",
"  /././.|.(. X.X_.XXoXa.OXl.+X+X+X+Xl.OXa.oXXX_..X X(.|./././.  ",
"/.@X@X@X#X$X%X&X&X*X=X-X-.8.<.<.<.<.8.-.-X=X*X&X&X%X$X#X@X@X@X/.",
";X:X:X:X@X>X>X,X(.&X(.(.<X<X<X<X<X<X<X<X(.(.&X(.,X>X>X@X:X:X:X;X",
"& :X1X2X:X@X@X3X4X5X/.= = (.6X= = = (.= = /.5X4X3X@X@X:X2X1X:X& ",
"/.:X1X1X:X:X7X8X9X0X/./.qXwX@X@X@X@XwXqX/./.0X9X8X7X:X:X1X1X:X/.",
"/.:X:X:X:X:XeX0X/./././.rXtX:X:X:X:XtXrX/./././.0XeX:X:X:X:X:X/.",
"  /./.:X:X@X/././.    /.:X:X:X2X2X:X:X:X/.    /././.@X:X:X/./.  ",
"    /././././.        /.:X:X:X2X2X:X:X:X/.        /././././.    ",
"                        /.:X:X:X:X:X:X/.                        ",
"                          /./././././.                          "
};
