/* XPM */
static char *_87469ea08eb48c49667e9cd0889b47e4AzaC3sHpzYO0uzR[] = {
/* columns rows colors chars-per-pixel */
"32 32 28 1 ",
"  c None",
". c #767678",
"X c #B7B7BB",
"o c #D9D9DD",
"O c white",
"+ c #FFD600",
"@ c #FFFC00",
"# c #C79D00",
"$ c #4D3B39",
"% c #8F7772",
"& c #705654",
"* c #EEBE93",
"= c #FFE1AF",
"- c #534721",
"; c gray85",
": c #2E1E22",
"> c #B7A099",
", c gray95",
"< c #928A8C",
"1 c #5C2E00",
"2 c #D7906E",
"3 c #964F00",
"4 c #6A1C30",
"5 c #C26C81",
"6 c #9D704C",
"7 c #DD8499",
"8 c #FFA3B9",
"9 c #8B5E4A",
/* pixels */
"          ..XXoooooXX..         ",
"        ..XooOOOOOOOooX..       ",
"       .XooOOOOOOOOOOOooX.      ",
"      .XooOOOOOOOOOOOOOooX.     ",
"     .XooOOOOOOOOOOOOOOOooX.    ",
"     .XooOOOOOOO+OOOOOOOooX.    ",
"     .XoooOOO+++@+++OOOoooX.    ",
"      #XX##+++@@@@@+++##XX#     ",
"      $###%&%%&%%%&%%&%###$     ",
"     $&%%&%&%%&%%%&%%&%&%%&$    ",
"     $&%%%&*&&=&&&=&&*&%%%&$    ",
"     $&%%%*---=====---*%%%&$    ",
"     $&%%%-;:o=====o:;-%%%&$    ",
"    $$&%>%-,:<=====<:,-%>%&$$   ",
"    $&$%>%*O11=====11O*%>%$&$   ",
"   $&&$%%%2*33=====33*2%%%$&&$  ",
"   $&&$&%%42*=======*24%%&$&&$  ",
"   $&%$&%%5-62*****26-5%%&$%&$  ",
"   $&%&$%%55---------55%%$&%&$  ",
"   $&%&.&%X57755555775X%&.&%&$  ",
"   $&&.X&%Xo578888875oX%&X.&&$  ",
"    $&.oO&.XX7788877XX.&Oo.&$   ",
"     -#OOX.XX#ooooo#XX.XOO#-    ",
"     -=@oX.oX+OOOOO+Xo.Xo@=-    ",
"     -=*+.Xoo@OOOOO@ooX.+*=-    ",
"      -#+.ooo@OOOOO@ooo.+#-     ",
"       -45XoO+OOOOO+OoX54-      ",
"        4577OO+@@@+OO7754       ",
"         445778888877544        ",
"           -999-4-999-          ",
"            ---   ---           ",
"             .........          "
};
