/* XPM */
static char *_58258ee64f249eac1fba137c5bf4709rDo3D6jKr9esUNzz[] = {
/* columns rows colors chars-per-pixel */
"32 32 108 2 ",
"   c #5B275B",
".  c #5D295D",
"X  c #632D63",
"o  c #6E2D6E",
"O  c #663166",
"+  c #6B336B",
"@  c #702E70",
"#  c #733673",
"$  c #753E75",
"%  c #7E327E",
"&  c #7C3D7C",
"*  c #774177",
"=  c #7D457D",
"-  c #7F497F",
";  c #863686",
":  c #823F82",
">  c #8D378D",
",  c #8E3D8E",
"<  c #A63FA6",
"1  c #844384",
"2  c #824A82",
"3  c #8D468D",
"4  c #8B4D8B",
"5  c #8C528C",
"6  c #934A93",
"7  c #9C4F9C",
"8  c #915491",
"9  c #955A95",
"0  c #9F5E9F",
"q  c #976097",
"w  c #9F619F",
"e  c #A655A6",
"r  c #A857A8",
"t  c #AB59AB",
"y  c #B046B0",
"u  c #B844B8",
"i  c #B35EB3",
"p  c #BE58BE",
"a  c #A566A5",
"s  c #AB6BAB",
"d  c #AD75AD",
"f  c #BB63BB",
"g  c #B272B2",
"h  c #B57DB5",
"j  c #C548C5",
"k  c #C949C9",
"l  c #C751C7",
"z  c #D24CD2",
"x  c #DB4EDB",
"c  c #DF50DF",
"v  c #C267C2",
"b  c #C368C3",
"n  c #CC6DCC",
"m  c #C27CC2",
"M  c #DF6DDF",
"N  c #D473D4",
"B  c #D57AD5",
"V  c #D876D8",
"C  c #DD78DD",
"Z  c #E752E7",
"A  c #E854E8",
"S  c #E95CE9",
"D  c #EB62EB",
"F  c #ED6CED",
"G  c #E37CE3",
"H  c #EE72EE",
"J  c #F07CF0",
"K  c #BD84BD",
"L  c #C282C2",
"P  c #C288C2",
"I  c #CA87CA",
"U  c #CC8BCC",
"Y  c #D182D1",
"T  c #D48DD4",
"R  c #D49AD4",
"E  c #D895D8",
"W  c #D89ED8",
"Q  c #DCA2DC",
"!  c #E48CE4",
"~  c #EE83EE",
"^  c #E39BE3",
"/  c #EB96EB",
"(  c #EA9FEA",
")  c #F285F2",
"_  c #F38CF3",
"`  c #F495F4",
"'  c #F59AF5",
"]  c #E0A0E0",
"[  c #ECA3EC",
"{  c #ECB0EC",
"}  c #F1A7F1",
"|  c #F7A1F7",
" . c #F7A7F7",
".. c #F1ACF1",
"X. c #F7A8F7",
"o. c #F6ADF6",
"O. c #F8ABF8",
"+. c #F8ADF8",
"@. c #F1B5F1",
"#. c #F6BCF6",
"$. c #FAB3FA",
"%. c #FBB5FB",
"&. c #F8B8F8",
"*. c #FABDFA",
"=. c #FCB9FC",
"-. c #FDBEFD",
";. c #FFC3FF",
":. c #FFC4FF",
/* pixels */
") ) ) ) ) ) ) ) ) n 6 6 n ) ) ) ) ) ) ) _ X.V _ 5       f ) ' %.",
") ) ) ) ) ) ) i +         : ) ) ) ) ) ) ) ) ) ) _ | +.0 . V ` +.",
") ) ) ) ) ) 6   * P ;.:.@.d ~ ) ) G r r G ) ) ) ) ) ` +.a   ! +.",
") ) ) ) ) b   9 ;.-.%.+.+.+.` ) 3         3 ) ) ) ) ) ` +.9 8 [ ",
") ) ) ) ) 1 X *.-.+.+.+.+.+.) i   2 d d 2   6 ) ) ) ) ) | X.X s ",
") ) ) ) )   d -.+.+.+.+.+.g #   . #.-.-.;..     # N ) ) _ +.s 3 ",
") ) n 1     K %.+.+.+.+.5   = 8   O ^ +.9   d d O # G ) ) | m t ",
") n     +   h +.+.+.+.[   q :.;.Q   a +.4 U +.+.d   r ) ) ` T ) ",
"G # + Q =.O d +.+.+.+.s   { +.+.$.a 4 +.T U +.+.g   r ) ) _ ` ) ",
"r   P +.+.T $ [ +.+.+.s   %.+.+.+.^ L +.+.+.+.( w & G ) ) ) ) ) ",
"f   ..+.+.+.+.+.+.+.+.+.8 [ +.+.+.o.+.+.+.+.+.} T ) ) ) ) ) ) ) ",
") 3 L +.+.+.+.+.+.+.+.+.+.+.+.+.+.+.+.+.+.+.+.+.+.) ) ) ) ) ) ) ",
") ) _ | O.+.+.+.+.+.+.+.+.+.+.+.+.+.+.+.+.+.+.O.' ) ) ) ) ) ) ) ",
") ) ) ) ) _ X.+.+.+.+.+.+.+.+.+.+.+.+.+.+.+.+.) ) ) ) ) ) ) ) ) ",
") ) ) ) ) _ O.+.+.+.+.+.+.+.+.+.+.+.+.+.+.+.+.) ) ) ) ) ) ) ) ) ",
") ) ) )  .+.+.+.+.+.+.+.+.+.+.+.+.+.+.+.+.+.+.' ) ) ) ) ) ) ) ) ",
") ) ) ) ' +.+.+.+.+.+.+.o.+.+.+.+.+.( +.+.+.O.) ) ) ) ) ) C ) ) ",
") ) ) ) ) _ | +.+.+.+.[ O $.+.+.+.+.X I +.+.+._ ) ) ) ) ) & & J ",
") ) ) ) ) V ! +.+.+.+.L   -.+.+.+.&.  r _ O.+.| ) ) ) ) ) /   y ",
") ) ) ) 6   E +.+.+.+.(   h -.$.%.K   r ) ) ) ) ) ) ) ) ) (   < ",
") ) ) 3   P %.+.+.+.+.+.= . W :.W . & G ) ) ) ) ) ) ) _ | =   x ",
"_ ) G   - :.+.+.+.+.+.+.^ +       O G ) ) ) ) ) N s T m 2   > Z ",
"' ) i   Q ;.+.+.+.+.+.+.+.T 9 + 3 n ) ) ) ) ) ) G         ; x Z ",
"T G r   :.;.+.+.+.+.+.+.+.+.` ) ) ) ) ) ) ) ) ) ) Y 2   l Z Z Z ",
"= f i   R :.%.+.+.+.+.X.' _ ) ) ) ) ) ) ) ) ) ) ) +.s   Z Z Z Z ",
", ) )     Q :.:.;.&.5 ) ) ) ) ) ) ) ) ) ) ) ) ) ` X.+ o Z Z Z Z ",
"x S J n     X $ .   e ) ) ) ) ) ) ' v C ) ) ) _ O.a   < Z Z Z Z ",
"Z Z Z F ~ r 6 1 7 v ) ) ) ) ) ) B +.T $ V ` ' +.m   @ Z Z Z Z Z ",
"Z Z Z Z Z D F ) ) ) ) ) ) ) ) ) O +.+.I 2 s s &   % z Z Z Z Z Z ",
"Z Z Z Z Z Z Z A S J ) ) ) ) ) )   X.+.%.        > c Z Z Z Z Z Z ",
"S Z Z Z Z Z Z Z Z H ) ) ) J ) ) O s %.] . k j Z Z Z Z Z Z Z Z Z ",
"M Z Z Z Z Z Z Z Z F ) S Z Z J ) p   +   u Z Z Z Z Z Z Z Z Z Z Z "
};
